# xmcd
#
# Track frame offsets: 
#        150
#        18203
#        44519
#        58713
#        80100
#        112497
#        130522
#        159496
#
# Disc length: 2420 seconds
#
# Revision: 0
# Processed by: cddbd v1.5.2PL0 Copyright (c) Steve Scherf et al.
# Submitted via: ExactAudioCopyFreeDBPlugin 1.0
#
DISCID=69097208
DTITLE=The Rusty Yates Band - Chameleon
DYEAR=2012
DGENRE=
TTITLE0=Rock Solid
TTITLE1=From Now Until Spring
TTITLE2=Sweet Love
TTITLE3=Love In The Conscious Mind
TTITLE4=Georgia On My Mind
TTITLE5=You Haven't Done Nothing
TTITLE6=I Won't Mention It Again
TTITLE7=Sara Smile
EXTD=
EXTT0=
EXTT1=
EXTT2=
EXTT3=
EXTT4=
EXTT5=
EXTT6=
EXTT7=
PLAYORDER=
